#N canvas 625 129 1324 920 12;
#X obj 68 180 oscparse;
#X obj 68 227 list trim;
#X obj 68 135 netreceive -u -b 41234;
#X obj 134 313 print;
#X obj 68 264 unpack s f f, f 19;
#X obj 69 313 print;
#X obj 287 271 netsend -u -b;
#X msg 287 132 1 2 3;
#X msg 367 232 connect localhost 57120;
#X obj 287 185 oscformat hi;
#X connect 0 0 1 0;
#X connect 1 0 4 0;
#X connect 2 0 0 0;
#X connect 4 0 5 0;
#X connect 4 1 3 0;
#X connect 7 0 9 0;
#X connect 8 0 6 0;
#X connect 9 0 6 0;
