#N canvas 146 147 1077 920 12;
#X obj 68 180 oscparse;
#X obj 68 227 list trim;
#X obj 134 313 print;
#X obj 68 264 unpack s f f, f 19;
#X obj 69 313 print;
#X obj 284 177 oscformat hue;
#X msg 367 232 connect localhost 41234;
#X msg 402 177 disconnect;
#X obj 296 324 tgl 15 0 empty empty empty 17 7 0 10 #fcfcfc #000000
#000000 0 1;
#X obj 287 271 netsend -u -b;
#X floatatom 283 110 5 0 0 0 - - - 0;
#X obj 68 135 netreceive -u -b 3000;
#X connect 0 0 1 0;
#X connect 1 0 3 0;
#X connect 3 0 4 0;
#X connect 3 1 2 0;
#X connect 5 0 9 0;
#X connect 6 0 9 0;
#X connect 7 0 9 0;
#X connect 9 0 8 0;
#X connect 10 0 5 0;
#X connect 11 0 0 0;
